<?xml version="1.0" encoding="utf-8"?>
<!-- Generator: Adobe Illustrator 19.2.1, SVG Export Plug-In . SVG Version: 6.00 Build 0)  -->
<svg version="1.1" id="Layer_1" xmlns="http://www.w3.org/2000/svg" xmlns:xlink="http://www.w3.org/1999/xlink" x="0px" y="0px"
	 viewBox="0 0 450 180" style="enable-background:new 0 0 450 180;" xml:space="preserve">
<style type="text/css">
	.st0{fill:#FFFF00;}
</style>
<g>
	<path class="st0" d="M110,7.1L16.3,161.2c13.5,8.1,29.4,12.8,46.3,12.8c49.8,0,90.2-40.4,90.2-90.2C152.8,51.4,135.7,23,110,7.1"/>
	<path d="M8.6,169.5l1.9,1.2l5.7-9.4c-0.6-0.4-1.3-0.8-1.9-1.2L8.6,169.5z"/>
	<path d="M108.1,6L14.4,160c0.6,0.4,1.3,0.8,1.9,1.2L110,7.1C109.4,6.7,108.7,6.4,108.1,6"/>
	<path d="M23.9,33.5h69l-60.6,101h31.8c4.8,0,8.5-0.7,11.1-2.1c2.6-1.4,4.9-3.1,6.9-5c2.1-1.9,4.3-4.9,6.5-8.8
		c2.2-4,3.9-8.5,4.9-13.7h1.6v31.7h-80l60.3-101H53.1c-7.8,0-13.9,2.1-18.2,6.1c-4.3,4.1-7.5,9.8-9.4,17h-1.6V33.5z"/>
	<path d="M110.2,135.4h6v-31.3h-6V103h12.7v32.4h6v1.1h-18.7V135.4z M115.3,84.8c0-1.1,0.4-2.1,1.2-2.9c0.8-0.8,1.8-1.2,2.9-1.2
		c1.1,0,2.1,0.4,2.9,1.2c0.8,0.8,1.2,1.8,1.2,2.9s-0.4,2.1-1.2,2.9c-0.8,0.8-1.8,1.2-2.9,1.2c-1.1,0-2.1-0.4-2.9-1.2
		C115.7,86.9,115.3,86,115.3,84.8"/>
	<path d="M235.7,135.6c-0.7,0.5-1.5,1-2.4,1.4c-0.9,0.4-2.1,0.6-3.4,0.6c-2.5,0-4.3-0.5-5.4-1.6c-1.1-1.1-1.9-2.6-2.3-4.5H222
		c-0.2,0.5-0.5,1.1-0.9,1.8c-0.4,0.7-0.9,1.4-1.7,2c-0.8,0.7-1.8,1.2-3,1.6c-1.2,0.4-2.8,0.7-4.8,0.7c-2.2,0-3.9-0.2-5.2-0.7
		c-1.3-0.5-2.3-1.1-3-1.8c-0.7-0.7-1.2-1.5-1.4-2.5c-0.2-0.9-0.4-1.8-0.4-2.5c0-1.8,0.4-3.3,1.1-4.4c0.7-1.1,1.7-2,2.8-2.6
		c1.2-0.7,2.5-1.2,3.9-1.6c1.4-0.4,2.9-0.9,4.3-1.3c1.7-0.6,3.1-1.1,4.3-1.5c1.1-0.4,2-0.9,2.6-1.5c0.6-0.6,1.1-1.4,1.3-2.3
		c0.2-0.9,0.4-2.1,0.4-3.7c0-1.2-0.1-2.4-0.2-3.4c-0.2-1-0.4-1.8-0.9-2.5c-0.4-0.7-1-1.2-1.8-1.6c-0.8-0.4-1.8-0.5-3.1-0.5
		c-1.7,0-3.1,0.3-4.3,0.9c-1.1,0.6-1.7,1.6-1.7,2.9c0,0.9,0.1,1.8,0.2,2.6c0.2,0.9,0.2,1.5,0.2,1.9c0,0.7-0.3,1.3-0.8,1.8
		c-0.5,0.5-1.3,0.7-2.3,0.7c-1.7,0-2.8-0.3-3.2-0.9c-0.4-0.6-0.6-1.4-0.6-2.4c0-1.1,0.3-2.2,0.8-3.3c0.5-1,1.3-2,2.3-2.8
		c1-0.8,2.3-1.4,3.8-1.9c1.5-0.5,3.3-0.7,5.3-0.7c2.4,0,4.4,0.3,6,0.9c1.6,0.6,2.9,1.4,3.9,2.4c1,1,1.7,2.2,2.1,3.4
		c0.4,1.3,0.6,2.6,0.6,4v19.4c0,1.5,0.2,2.5,0.7,3c0.5,0.5,1.1,0.8,2,0.8c0.6,0,1.2-0.1,1.8-0.3c0.6-0.2,1.2-0.5,1.8-0.9
		L235.7,135.6z M222.1,117.4h-0.2c-0.1,0.7-1,1.4-2.6,2l-5.9,2.3c-1.7,0.7-2.9,1.6-3.8,2.8c-0.9,1.2-1.3,2.7-1.3,4.6
		c0,0.8,0.1,1.6,0.2,2.4c0.2,0.8,0.4,1.6,0.9,2.2c0.4,0.7,1,1.2,1.8,1.6c0.8,0.4,1.7,0.6,2.9,0.6c1.7,0,3.1-0.4,4.2-1.1
		c1.1-0.7,1.9-1.6,2.4-2.7c0.5-1.1,0.9-2.3,1.1-3.5c0.2-1.3,0.3-2.4,0.3-3.5V117.4z"/>
	<path d="M306.3,119.8c0-2.5,0.6-4.9,1.7-7.1c1.1-2.2,2.5-4.1,4.3-5.7c1.7-1.6,3.7-2.8,5.9-3.7c2.2-0.9,4.3-1.3,6.4-1.3
		c2.1,0,4.2,0.4,6.4,1.3c2.2,0.9,4.1,2.1,5.9,3.7c1.7,1.6,3.2,3.5,4.3,5.7c1.1,2.2,1.7,4.6,1.7,7.1c0,2.4-0.5,4.7-1.6,6.9
		c-1,2.2-2.4,4-4.1,5.7c-1.7,1.6-3.6,2.9-5.8,3.8c-2.2,0.9-4.4,1.4-6.7,1.4s-4.5-0.5-6.7-1.4c-2.2-0.9-4.1-2.2-5.8-3.8
		s-3.1-3.5-4.1-5.7C306.8,124.5,306.3,122.2,306.3,119.8 M314.1,119.8c0,3.7,0.3,6.6,0.9,8.8c0.6,2.2,1.3,3.9,2.3,5
		c0.9,1.2,2,1.9,3.3,2.3c1.2,0.4,2.6,0.5,4,0.5c1.4,0,2.7-0.2,4-0.5c1.2-0.4,2.3-1.1,3.3-2.3c0.9-1.2,1.7-2.8,2.3-5
		c0.6-2.2,0.9-5.1,0.9-8.8c0-3.1-0.2-5.7-0.6-7.8c-0.4-2.1-1.1-3.8-1.9-5.1c-0.9-1.3-1.9-2.3-3.2-2.8c-1.3-0.6-2.8-0.9-4.6-0.9
		c-1.8,0-3.3,0.3-4.6,0.9c-1.3,0.6-2.4,1.5-3.2,2.8c-0.9,1.3-1.5,3-1.9,5.1C314.3,114,314.1,116.6,314.1,119.8"/>
	<path d="M348.5,135.4h8.7V82h-8.7v-1.1H363c0.7,0,1.5,0,2.2,0c0.7,0,1.5-0.1,2.2-0.1c0.7,0,1.5,0,2.2,0c0.7,0,1.5,0,2.2,0
		c1.6,0,3,0,4.2,0.1c1.2,0.1,2.4,0.1,3.4,0.3c1.1,0.1,2.1,0.3,3,0.5c1,0.2,2,0.5,3.1,0.9c3.2,1,5.9,2.4,8.2,4.2
		c2.3,1.7,4.2,3.8,5.7,6c1.5,2.3,2.6,4.8,3.3,7.5c0.7,2.7,1.1,5.5,1.1,8.5c0,3.4-0.4,6.5-1.2,9.2c-0.8,2.7-2,5.1-3.4,7.3
		c-1.5,2.1-3.2,3.9-5.1,5.5c-2,1.5-4,2.8-6.3,3.7c-1.2,0.6-2.4,1-3.6,1.3c-1.1,0.3-2.3,0.5-3.4,0.7c-1.2,0.2-2.5,0.3-3.9,0.3
		c-1.4,0.1-3,0.1-4.8,0.1c-0.8,0-1.6,0-2.5,0c-0.9,0-1.8-0.1-2.7-0.1c-0.9-0.1-1.8-0.1-2.6-0.1c-0.9,0-1.7,0-2.5,0h-13.3V135.4z
		 M365,135.4c0.9,0.1,1.9,0.2,3.1,0.2c1.2,0.1,2.5,0.1,3.9,0.1c1.8,0,3.5-0.1,5.3-0.3c1.7-0.2,3.4-0.6,5-1.2
		c1.6-0.6,3.1-1.5,4.4-2.6c1.4-1.1,2.6-2.6,3.7-4.4c1.7-2.8,2.8-5.7,3.5-8.6c0.7-2.9,1-6.1,1-9.6c0-4.1-0.4-7.8-1.2-11.2
		c-0.8-3.4-2.1-6.2-3.9-8.6c-1.8-2.4-4.2-4.2-7.1-5.5c-3-1.3-6.6-2-11-2c-1.3,0-2.5,0-3.5,0.1C367,81.9,366,82,365,82V135.4z"/>
	<polygon points="240,114.5 248.7,114.5 248.7,61.2 240,61.2 240,60.1 257.6,60.1 272,102.1 272.1,102.1 286.6,60.1 303.8,60.1 
		303.8,61.2 295.2,61.2 295.2,114.5 303.8,114.5 303.8,115.6 278.7,115.6 278.7,114.5 287.4,114.5 287.4,61.7 287.2,61.7 
		268.6,115.7 250,62.2 249.8,62.2 249.8,114.5 258.5,114.5 258.5,115.6 240,115.6 	"/>
	<path d="M133.9,122.7h9.1V40.6h-9.1v-1.7h19.3V83h0.2c1.1-3.1,3-5.7,5.7-7.8c2.7-2.1,6.2-3.2,10.5-3.2c3.4,0,6.6,0.7,9.6,2.2
		c3,1.5,5.6,3.4,7.9,5.8c2.3,2.4,4.1,5.2,5.5,8.5c1.3,3.2,2,6.6,2,10.2c0,3.6-0.7,7.1-2.1,10.4c-1.4,3.3-3.3,6.2-5.6,8.7
		c-2.4,2.5-5.1,4.5-8.2,6c-3.1,1.5-6.4,2.3-9.9,2.3c-2.7,0-5-0.5-6.8-1.4c-1.9-0.9-3.4-2-4.6-3.3c-1.2-1.3-2.2-2.6-2.8-3.9
		c-0.6-1.3-1.1-2.5-1.4-3.4H153v10.3h-19.1V122.7z M182.9,97.2c0-3.6-0.2-6.9-0.6-9.8c-0.4-2.9-1.1-5.4-2.1-7.4
		c-1-2.1-2.4-3.6-4.1-4.7c-1.8-1.1-4-1.7-6.8-1.7c-2.9,0-5.3,0.5-7.2,1.5c-1.9,1-3.4,2.3-4.6,3.9c-0.9,1.1-1.6,2.3-2.1,3.6
		c-0.5,1.3-0.9,2.8-1.2,4.5c-0.3,1.7-0.5,3.7-0.7,6c-0.1,2.3-0.2,4.9-0.2,8c0,2.6,0.2,5.3,0.6,8.1c0.4,2.8,1.1,5.3,2.3,7.5
		c1.1,2.3,2.7,4.1,4.7,5.5c2,1.4,4.7,2.1,8,2.1c3.2,0,5.8-0.6,7.7-1.9c1.9-1.3,3.3-3.1,4.3-5.4c0.9-2.4,1.5-5.2,1.8-8.6
		C182.7,105.1,182.9,101.3,182.9,97.2"/>
	<path d="M417.4,96.3c0,0.5,0,1.1,0,1.6c0,0.5,0,1.2,0,2.1c0,1.7,0.1,3.5,0.3,5.4c0.2,1.9,0.7,3.6,1.4,5.1c0.7,1.5,1.7,2.8,3.1,3.7
		c1.4,1,3.2,1.5,5.5,1.5c2.3,0,4.2-0.3,5.7-1c1.5-0.7,2.7-1.5,3.5-2.5c0.9-1,1.5-1.9,1.9-2.9c0.4-1,0.7-1.8,0.9-2.4l1.2,0.2
		c-0.2,0.6-0.5,1.4-0.9,2.5c-0.4,1.1-1.1,2.1-2.1,3.2c-1,1.1-2.3,2-3.9,2.8c-1.6,0.8-3.8,1.2-6.4,1.2c-2.6,0-5-0.4-7.2-1.2
		c-2.2-0.8-4.1-2-5.7-3.6c-1.6-1.6-2.9-3.4-3.7-5.6c-0.9-2.2-1.3-4.6-1.3-7.2c0-2.3,0.5-4.5,1.4-6.7c0.9-2.2,2.2-4.1,3.7-5.7
		c1.6-1.7,3.4-3,5.6-4c2.1-1,4.4-1.5,6.9-1.5c1.5,0,3,0.3,4.7,0.8c1.7,0.5,3.2,1.4,4.6,2.5c1.4,1.2,2.6,2.7,3.6,4.6
		c1,1.9,1.4,4.3,1.4,7.2H417.4z M433.4,95.2c0.1-0.7,0.2-1.4,0.2-2v-2c0-1.8-0.2-3.2-0.5-4.4c-0.3-1.1-0.8-2.1-1.4-2.7
		c-0.6-0.7-1.3-1.2-2.2-1.4c-0.9-0.3-1.8-0.4-2.8-0.4c-1.8,0-3.2,0.4-4.4,1.1c-1.1,0.7-2.1,1.7-2.7,2.8c-0.7,1.2-1.2,2.6-1.5,4.1
		c-0.3,1.6-0.6,3.2-0.7,4.9H433.4z"/>
</g>
</svg>
